# xmcd
#
# Track frame offsets:
#	150
#	55147
#	69860
#	101079
#	132115
#	158122
#	181084
#	191950
#	205992
#	233842
#	277680
#	290302
#	296427
#
# Disc length: 4152 seconds
#
# Revision: 0
# Processed by: cddbd v1.5.2PL0 Copyright (c) Steve Scherf et al.
# Submitted via: EasyCDDAExtractor 16.0.6.1
#
DISCID=b710360d
DTITLE=Χορωδία Δανιηλαίων κ Θωμάδων - Άγιον Όρος 1000 χρόνια 04
DYEAR=2012
DGENRE=Βυζ. Εκκλησιαστική
TTITLE0=Στίχοι από τα Ανοιξαντάρια
TTITLE1=Κατευθυνθήτω
TTITLE2=Στιχολογία
TTITLE3=Στιχηρά προσόμοια
TTITLE4=Θεοτόκε Παρθένε
TTITLE5=Τυπικά Στάσις α'
TTITLE6=Τυπικά Στάσις β'
TTITLE7=Τρισάγιον Αποστόλου
TTITLE8=Δύναμις [Ξένου Κορώνη]
TTITLE9=Χερουβικός ύμνος
TTITLE10=Αγαπήσω σε, Κύριε
TTITLE11=Σε υμνούμεν
TTITLE12=Άξιον Εστίν
EXTD=
EXTT0=
EXTT1=
EXTT2=
EXTT3=
EXTT4=
EXTT5=
EXTT6=
EXTT7=
EXTT8=
EXTT9=
EXTT10=
EXTT11=
EXTT12=
PLAYORDER=
